<svg width="86" height="99" viewBox="0 0 86 99" fill="none" xmlns="http://www.w3.org/2000/svg">
<path d="M42.9999 0L68.5 14.5V20.5L86 23V40L81 43L85.4352 45V74.5L44 99L0.564697 73.5L0.5 24.5L42.9999 0Z" fill="#141446"/>
<path opacity="0.4" d="M30 56.0303L11 67L30 79V56.0303Z" fill="#022FF4"/>
<path d="M48.5 36.5V27.5V26.6851L40 31.5925L48.5 36.5Z" fill="black"/>
<path d="M68.5 24.815V15.815V14.5L59 20L68.5 24.815Z" fill="black"/>
<g filter="url(#filter0_i_4898_103575)">
<path d="M39.2488 2.06461C39.2924 2.06461 40.1495 1.5768 41.1533 0.980464C42.1572 0.384129 43.1087 -0.05451 43.2674 0.00549168C43.4264 0.06571 44.8436 0.861113 46.4167 1.77349C47.99 2.68564 49.6192 3.62357 50.0373 3.85795C52.2142 5.0777 54.2831 6.26647 56.2991 7.45589C57.5334 8.18392 58.5863 8.77961 58.6393 8.77961C58.6923 8.77961 59.3439 9.15803 60.0878 9.62028C60.8314 10.0828 62.857 11.2665 64.5891 12.2508C66.3212 13.2353 67.9138 14.1609 68.1286 14.3078C68.4724 14.5432 68.1662 14.7748 65.5408 16.2634C63.903 17.192 62.0299 18.272 61.3783 18.6632C60.727 19.0544 60.0832 19.4142 59.9481 19.4627C59.3578 19.6746 60.2122 19.8398 64.5971 20.3623C73.9089 21.4716 83.3756 22.6786 83.4653 22.768C83.5991 22.9015 83.8484 22.7479 77.5573 26.4069C73.923 28.5204 71.5174 29.7906 71.1502 29.7902C70.8266 29.7895 65.733 29.2047 59.8308 28.4905C53.9289 27.7761 48.7954 27.1917 48.4231 27.1917C48.0118 27.1917 47.067 27.5857 46.014 28.1963C45.0612 28.7489 43.451 29.6743 42.4356 30.2531C41.4202 30.8316 40.5895 31.4098 40.5895 31.5376C40.5895 31.7471 43.7759 33.6543 51.5111 38.075C52.9789 38.9137 54.1517 39.6794 54.1174 39.7765C54.0594 39.9413 45.5316 44.8998 43.6512 45.8624L42.8035 46.2963L41.9137 45.8069C41.4244 45.5377 39.3135 44.3249 37.223 43.1119C35.1326 41.8988 31.5163 39.8083 29.187 38.4664C19.4998 32.8858 17.8687 31.8948 18.0594 31.7046C18.1671 31.5972 18.9801 31.0931 19.866 30.5845C20.7519 30.0757 22.9427 28.7959 24.7346 27.7402C26.5264 26.6844 29.996 24.653 32.4448 23.2259C38.9912 19.4107 46.4009 15.0609 46.4971 14.9769C46.5207 14.9559 45.7673 14.4694 44.8223 13.8953L43.1043 12.8519L34.5711 17.828C29.8776 20.5646 23.3404 24.3746 20.0437 26.2945L14.0496 29.7852L9.40132 27.0931C2.18059 22.9114 2.78069 23.3124 3.25699 22.9872C3.63512 22.729 13.3346 17.0668 15.0696 16.0914C15.4877 15.8563 16.9537 15.0044 18.3274 14.1982C24.0717 10.8272 27.4021 8.89571 32.2474 6.12588C35.0654 4.51472 37.7756 2.94189 38.2701 2.63062C38.7646 2.31935 39.2049 2.06461 39.2488 2.06461Z" fill="url(#paint0_linear_4898_103575)"/>
</g>
<path d="M43 17V13L14 29.5V35.2568L17.8853 37.5V31.5L43 17Z" fill="black"/>
<g filter="url(#filter1_i_4898_103575)">
<path d="M65.33 39.6749C75.3698 33.9143 80.8535 30.7427 83.5482 29.1374C84.5779 28.5241 85.5424 28.0123 85.6916 28.0002C85.9032 27.983 85.9625 29.3546 85.9598 34.2057L85.9566 40.4333L83.1907 42.0501C80.709 43.5005 76.6569 45.8404 66.1987 51.8611L66.1444 51.8924C61.8421 54.3693 61.83 54.3763 59.1511 55.9347L56.8595 57.268V59.3254C56.8595 61.1744 56.8971 61.3685 57.2294 61.2411C57.4329 61.1633 59.6077 59.9464 62.0619 58.5367C64.5164 57.1272 66.8666 55.7786 67.2847 55.5399C68.6964 54.7336 82.3677 46.7887 83.7912 45.9474C84.5677 45.4884 85.3741 45.0487 85.583 44.9703C85.9427 44.8351 85.9631 45.6231 85.9631 59.6445V74.4612L83.3025 75.9864C81.8393 76.8253 78.1497 78.9507 75.1036 80.7096C72.0575 82.4685 67.6105 85.0317 65.2214 86.4052C60.5937 89.0661 54.3838 92.6456 47.9004 96.3893L46 97.4867L46.0037 91.1629L46.0076 84.8389L47.3611 84.0483C48.6417 83.3003 54.4266 79.9588 68.6363 71.7594L74.8744 68.1597L74.8805 66.0293L74.8864 63.8987L73.9633 64.4229C73.4557 64.711 71.1344 66.0523 68.805 67.4033C57.7144 73.8356 54.9105 75.4531 50.7228 77.8347C48.2438 79.2447 46.1668 80.3983 46.1075 80.3983C46.0484 80.3983 46 73.7232 46 65.5647V50.7313L46.8149 50.3165C47.2632 50.0884 48.8858 49.1604 50.4207 48.2543C51.9556 47.3482 53.252 46.6068 53.3015 46.6068C53.3513 46.6068 54.0988 46.1826 54.9628 45.6643C55.8268 45.1459 60.4921 42.4506 65.33 39.6749Z" fill="url(#paint1_linear_4898_103575)"/>
</g>
<path d="M29.6866 56.5L11 67L10.634 45.5L29.6866 56.5Z" fill="black"/>
<g filter="url(#filter2_i_4898_103575)">
<path fill-rule="evenodd" clip-rule="evenodd" d="M0.00830583 73.4634L0.000272532 50.2317C-0.00494005 34.5581 0.0645578 27 0.214202 27C0.336263 27 0.800617 27.2277 1.24586 27.506C1.69132 27.7844 2.98425 28.5496 4.11908 29.2066C5.2539 29.8636 7.62562 31.2443 9.38964 32.2747C11.1537 33.3052 12.6408 34.1482 12.6942 34.1482C12.7476 34.1482 13.7478 34.7201 14.9167 35.4189C16.0856 36.1177 18.0682 37.272 19.3224 37.9842C20.5767 38.6964 22.9224 40.0403 24.535 40.9704C27.4002 42.6232 30.9467 44.662 36.9692 48.1182L39.9556 49.8321V73.1678V96.5034L35.9918 94.2052C28.4764 89.8474 25.9415 88.38 24.3178 87.4471C23.4219 86.9322 18.8283 84.2936 14.1099 81.5834C9.39138 78.8733 4.28827 75.9376 2.76946 75.0597L0.00830583 73.4634ZM14.87 48.0658C16.184 48.8359 17.6989 49.709 18.2365 50.006C18.774 50.3028 20.2889 51.1774 21.6029 51.9499C22.9169 52.7221 25.1405 54.0138 26.544 54.82L29.096 56.2858V66.8784C29.096 72.7042 29.0539 77.4708 29.0022 77.4708C28.9505 77.4708 26.5316 76.0933 23.6267 74.4098L23.0513 74.0763C20.298 72.4807 17.3422 70.7677 16.2818 70.1534C15.1469 69.4959 13.5343 68.5511 12.6981 68.054L11.1778 67.15L11.1215 56.4788L11.0651 45.8074L11.7731 46.2363C12.1623 46.4722 13.556 47.2955 14.87 48.0658Z" fill="url(#paint2_linear_4898_103575)"/>
</g>
<defs>
<filter id="filter0_i_4898_103575" x="3" y="0" width="80.5112" height="48.2964" filterUnits="userSpaceOnUse" color-interpolation-filters="sRGB">
<feFlood flood-opacity="0" result="BackgroundImageFix"/>
<feBlend mode="normal" in="SourceGraphic" in2="BackgroundImageFix" result="shape"/>
<feColorMatrix in="SourceAlpha" type="matrix" values="0 0 0 0 0 0 0 0 0 0 0 0 0 0 0 0 0 0 127 0" result="hardAlpha"/>
<feOffset dy="2"/>
<feGaussianBlur stdDeviation="1"/>
<feComposite in2="hardAlpha" operator="arithmetic" k2="-1" k3="1"/>
<feColorMatrix type="matrix" values="0 0 0 0 0.247461 0 0 0 0 0.38863 0 0 0 0 0.995981 0 0 0 1 0"/>
<feBlend mode="normal" in2="shape" result="effect1_innerShadow_4898_103575"/>
</filter>
<filter id="filter1_i_4898_103575" x="46" y="28" width="39.9631" height="71.4868" filterUnits="userSpaceOnUse" color-interpolation-filters="sRGB">
<feFlood flood-opacity="0" result="BackgroundImageFix"/>
<feBlend mode="normal" in="SourceGraphic" in2="BackgroundImageFix" result="shape"/>
<feColorMatrix in="SourceAlpha" type="matrix" values="0 0 0 0 0 0 0 0 0 0 0 0 0 0 0 0 0 0 127 0" result="hardAlpha"/>
<feOffset dy="2"/>
<feGaussianBlur stdDeviation="1"/>
<feComposite in2="hardAlpha" operator="arithmetic" k2="-1" k3="1"/>
<feColorMatrix type="matrix" values="0 0 0 0 0.930983 0 0 0 0 0.904056 0 0 0 0 0.123157 0 0 0 0.5 0"/>
<feBlend mode="normal" in2="shape" result="effect1_innerShadow_4898_103575"/>
</filter>
<filter id="filter2_i_4898_103575" x="0" y="27" width="39.9556" height="71.5034" filterUnits="userSpaceOnUse" color-interpolation-filters="sRGB">
<feFlood flood-opacity="0" result="BackgroundImageFix"/>
<feBlend mode="normal" in="SourceGraphic" in2="BackgroundImageFix" result="shape"/>
<feColorMatrix in="SourceAlpha" type="matrix" values="0 0 0 0 0 0 0 0 0 0 0 0 0 0 0 0 0 0 127 0" result="hardAlpha"/>
<feOffset dy="2"/>
<feGaussianBlur stdDeviation="1"/>
<feComposite in2="hardAlpha" operator="arithmetic" k2="-1" k3="1"/>
<feColorMatrix type="matrix" values="0 0 0 0 0.671455 0 0 0 0 0.664044 0 0 0 0 1 0 0 0 0.5 0"/>
<feBlend mode="normal" in2="shape" result="effect1_innerShadow_4898_103575"/>
</filter>
<linearGradient id="paint0_linear_4898_103575" x1="56" y1="20.5" x2="43" y2="-11" gradientUnits="userSpaceOnUse">
<stop stop-color="#234CFF"/>
<stop offset="1" stop-color="#0030FD"/>
</linearGradient>
<linearGradient id="paint1_linear_4898_103575" x1="65.9816" y1="28" x2="65.9816" y2="97.4867" gradientUnits="userSpaceOnUse">
<stop stop-color="#FFB11F"/>
<stop offset="1" stop-color="#DE7E00"/>
</linearGradient>
<linearGradient id="paint2_linear_4898_103575" x1="19.9778" y1="27" x2="19.9778" y2="96.5034" gradientUnits="userSpaceOnUse">
<stop stop-color="#7A77FF"/>
<stop offset="1" stop-color="#494799"/>
</linearGradient>
</defs>
</svg>
