<svg width="725" height="1080" viewBox="0 0 725 1080" fill="none" xmlns="http://www.w3.org/2000/svg">
<g clip-path="url(#clip0_4891_14591)">
<rect width="724.975" height="1080" fill="#0030FF"/>
<path fill-rule="evenodd" clip-rule="evenodd" d="M18.1223 70.8767L88.9217 141.699L74.8529 155.77L60.7829 169.843L0.539871 109.523L-59.7031 49.2048V77.0926V104.98L-27.488 137.265C-9.76898 155.022 11.0273 175.912 18.7271 183.687L32.7257 197.822L26.4179 204.228C22.9489 207.752 19.6406 210.477 19.0677 210.287C18.4949 210.096 0.538598 192.432 -20.8344 171.035L-59.6955 132.13L-59.6993 160.137L-59.7031 188.145L102.968 350.569C192.436 439.904 265.638 513.635 265.638 514.418C265.638 516.062 240.048 541.118 238.369 541.118C237.754 541.118 170.697 474.649 89.3529 393.41C8.00869 312.171 -58.8062 245.463 -59.1239 245.171C-59.4429 244.878 -59.7031 256.948 -59.7031 271.993V299.346L44.3334 403.323C101.554 460.511 153.082 512.077 158.841 517.914C164.6 523.749 178.355 537.509 189.406 548.491C200.458 559.472 209.501 569.063 209.501 569.805C209.501 570.546 203.467 577.165 196.094 584.515L182.688 597.879L61.4922 476.665L-59.7031 355.452V383.551V411.651L47.5881 518.626L154.879 625.601L142.958 637.956C136.401 644.751 129.97 651.052 128.666 651.959C126.512 653.458 117.831 645.153 33.9173 561.314C-16.8895 510.552 -58.7399 468.779 -59.0818 468.487C-59.4237 468.195 -59.7018 490.877 -59.7018 518.892L-59.7006 569.83L-48.6339 558.664C-42.5468 552.524 -36.9394 547.499 -36.1727 547.499C-35.4059 547.499 -28.774 553.524 -21.4353 560.89L-8.09124 574.281L-33.8978 600.097L-59.7031 625.912V653.301V680.69L-55.6638 676.942C-53.4425 674.881 -48.4182 669.996 -44.5001 666.087C-40.582 662.179 -36.3334 658.201 -35.0601 657.248C-32.946 655.667 -16.1712 672.09 156.636 844.916C260.795 949.086 346.017 1035.18 346.015 1036.24C346.013 1041.38 329.755 1070.97 327.234 1070.42C326.342 1070.22 238.916 983.379 132.954 877.436L-59.7031 684.814L-59.6967 712.82L-59.6904 740.827L119.547 919.942C218.127 1018.45 298.47 1099.57 298.084 1100.19C297.684 1100.84 309.424 1101.32 325.458 1101.32H353.53L358.728 1095.26C364.848 1088.12 375.198 1070.02 379.981 1058.09C395.761 1018.72 396.97 975.593 383.422 935.431C379.869 924.894 370.612 905.754 365.218 897.786C363.318 894.979 360.195 890.385 358.277 887.577C356.36 884.77 347.65 875.248 338.922 866.417C330.192 857.588 323.051 849.8 323.051 849.113C323.051 848.427 329.073 841.938 336.434 834.693C351.727 819.642 348.864 819.718 362.996 833.981C375.776 846.883 387.932 860.819 394.778 870.418C408.478 889.625 423.083 924.015 428.338 949.441C434.467 979.096 433.337 1018.76 425.557 1047.09C420.466 1065.62 408.955 1092.75 403.279 1099.59C402.077 1101.04 405.526 1101.32 424.306 1101.32H446.772L450.713 1093.51C454.175 1086.66 459.933 1070.17 463.586 1056.66C474.539 1016.14 474.011 964.138 462.234 923.7C449.132 878.717 429.513 845.533 395.555 810.917C386.554 801.741 379.189 793.813 379.189 793.3C379.189 792.785 385.282 786.241 392.728 778.757L406.269 765.149L423.045 782.338C446.085 805.946 458.5 821.904 473.151 846.742C484.13 865.355 500.038 906.133 504.018 925.86C511.433 962.617 513.197 989.945 510.074 1019.65C508.931 1030.53 507.367 1042.88 506.599 1047.09C504.64 1057.83 497.291 1083.84 493.531 1093.35L490.378 1101.32H511.196H532.014L533.897 1096.54C538.213 1085.57 544.24 1060.92 547.076 1042.62C550.293 1021.88 550.954 974.359 548.321 953.156C540.918 893.524 520.63 842.256 485.258 793.784C476.717 782.081 472.682 777.517 451.166 755.222L434.271 737.717L446.214 725.635C452.782 718.989 459.396 712.889 460.911 712.079C463.428 710.731 464.88 711.85 477.882 725.174C497.701 745.482 501.013 749.222 512.645 764.434C532.158 789.956 546.611 814.145 558.772 841.638C567.737 861.907 576.215 886.972 580.135 904.805C581.293 910.068 583.065 918.108 584.073 922.67C586.926 935.571 589.69 962.141 590.51 984.56C591.093 1000.51 590.682 1010.29 588.634 1029.22C586.066 1052.97 580.326 1083.65 576.361 1094.82C575.264 1097.91 574.571 1100.65 574.822 1100.9C575.072 1101.15 595.317 1101.21 619.809 1101.02C654.743 1100.76 663.653 1100.37 661.151 1099.21C659.397 1098.39 650.355 1090.74 641.056 1082.2C629.371 1071.46 624.149 1065.81 624.143 1063.89C624.137 1062.37 624.995 1054.81 626.046 1047.09C627.099 1039.37 628.395 1029.18 628.926 1024.45L629.893 1015.85L646.479 1032.43C672.831 1058.77 703.732 1084.39 723.576 1096.36L731.8 1101.32L774.621 1101.3C802.74 1101.29 816.785 1100.86 815.529 1100.05C814.476 1099.37 812.542 1098.8 811.232 1098.79C804.957 1098.74 760.906 1075.5 742.805 1062.7C715.361 1043.28 699.438 1029.44 662.163 992.592C630.893 961.683 629.328 959.906 628.577 954.501C626.44 939.102 622.596 915.947 620.809 907.715C619.709 902.648 619.006 897.94 619.247 897.255C619.488 896.569 639.8 915.931 664.382 940.284C707.561 983.058 718.161 993.065 734.512 1006.49C761.789 1028.88 803.874 1052.96 835.517 1064.27C841.715 1066.49 848.796 1069.09 851.252 1070.05C858.118 1072.75 864.108 1074.45 880.998 1078.52C905.431 1084.39 923.948 1087.12 950.268 1088.73C1027.75 1093.46 1105.03 1074.24 1171.1 1033.79C1178.95 1028.98 1187.85 1023.08 1190.87 1020.68C1193.9 1018.27 1198.06 1015.25 1200.13 1013.96C1208.46 1008.75 1224.24 995.004 1244.21 975.545L1265.27 955.039L1277.39 953.42C1292.33 951.423 1307.98 947.996 1321.4 943.779C1333.26 940.057 1332.58 940.183 1332.03 941.782C1331.27 944.01 1256.32 1018.61 1241.71 1031.67C1212.87 1057.47 1154.76 1093.24 1131.3 1099.64C1129.05 1100.26 1144.52 1100.82 1168.92 1101.02C1215.74 1101.4 1213.85 1101.71 1229.33 1091.25C1237.28 1085.87 1258.99 1069.14 1260.8 1066.99C1261.15 1066.57 1264.88 1063.39 1269.09 1059.92C1273.3 1056.45 1329.14 1001.35 1393.17 937.467L1509.59 821.324V670.302V519.28L1504.49 509.366C1501.68 503.914 1499.38 498.895 1499.38 498.212C1499.38 497.531 1501.68 494.73 1504.49 491.989L1509.59 487.004V459.412V431.82L1493.1 448.45L1476.61 465.078L1473.36 461.306C1471.58 459.231 1465.8 452.653 1460.53 446.687C1455.25 440.722 1450.93 435.52 1450.92 435.127C1450.89 433.826 1490.45 395.012 1492.21 394.627C1493.16 394.417 1497.46 397.716 1501.76 401.955L1509.59 409.664V388.55V367.436L1498.63 356.568C1486.01 344.063 1485.74 346.862 1500.98 332.104L1509.59 323.764V295.606V267.449L1453.46 323.569C1422.58 354.435 1396.73 379.889 1396 380.133C1394.34 380.685 1369.25 355.44 1369.25 353.219C1369.25 352.324 1400.82 320.026 1439.42 281.445L1509.59 211.297V183.618V155.939L1425.28 240.113C1362.53 302.758 1340.4 324.108 1338.76 323.585C1335.62 322.589 1312.77 299.056 1313.32 297.392C1313.57 296.634 1357.84 251.949 1411.68 198.094L1509.59 100.176V72.1311V44.0852L1396.84 156.85L1284.09 269.614L1270.53 256.279C1263.07 248.945 1256.97 242.417 1256.97 241.774C1256.97 241.13 1311.08 186.481 1377.22 120.329L1497.46 0.054872H1457.44C1413.05 0.054872 1415.84 -0.6138 1424.43 7.95261C1426.36 9.87823 1427.94 12.128 1427.94 12.9511C1427.94 15.2187 1403.51 39.6137 1401.24 39.6137C1400.15 39.6137 1390.33 30.7015 1379.43 19.8075L1359.6 0.00255219L1332.26 0.347097L1304.93 0.692918L1338.36 33.9594C1356.75 52.256 1371.8 67.966 1371.8 68.8707C1371.8 70.9227 1347.46 95.7567 1345.45 95.7593C1344.64 95.7605 1322.27 74.2277 1295.74 47.9083L1247.51 0.054872H1220.03H1192.55L1255.01 62.5336L1317.47 125.012L1306.68 135.59C1300.74 141.408 1294.89 146.947 1293.67 147.9C1291.68 149.462 1284.02 142.2 1216.58 74.8199L1141.69 0.00638047L1114.46 0.349649L1087.24 0.692918L1175.29 88.7433C1223.72 137.171 1263.34 177.28 1263.35 177.875C1263.35 179.055 1247.62 195.139 1240.25 201.481L1235.66 205.441L1133.12 102.747L1030.58 0.054872H994.85H959.122L969.164 10.1577L979.206 20.2618L965.945 33.7654C958.651 41.1923 952.102 47.269 951.394 47.269C950.684 47.2703 939.495 36.6468 926.527 23.6626L902.95 0.054872H879.015C865.851 0.054872 855.08 0.486191 855.08 1.01194C855.08 4.3234 875.358 27.7856 897.183 49.728C911.217 63.8378 922.7 75.8305 922.7 76.3792C922.7 76.928 916.682 83.3161 909.328 90.5732C897.396 102.348 895.711 103.588 893.699 102.084C888.394 98.1175 842.595 50.9237 835.709 42.3293C826.513 30.8495 818.478 18.645 813.131 8.03045L809.112 0.054872H788.08C771.872 0.054872 767.046 0.428767 767.046 1.68317C767.046 3.77851 779.677 29.4765 785.123 38.4627C796.343 56.9737 811.602 75.315 838.227 102.293C853.461 117.727 866.083 131.043 866.276 131.883C866.47 132.723 860.543 139.437 853.106 146.804L839.585 160.199L810.594 130.852C781.221 101.118 772.24 90.8221 761.62 74.7063C758.382 69.7933 754.098 63.4767 752.1 60.6693C747.013 53.5231 733.405 25.8957 728.216 12.1778L723.872 0.692918L693.468 0.363686L663.065 0.0344545L632.518 30.5318L601.972 61.0278L591.99 51.9165C586.499 46.9041 582.159 42.0689 582.346 41.1693C582.533 40.2697 591.579 30.6517 602.447 19.7947L622.207 0.054872L594.154 0.0574242L566.1 0.0587003L377.277 188.919C273.425 292.792 187.869 377.778 187.153 377.778C185.519 377.778 159.027 351.29 159.808 350.437C160.123 350.091 239.035 271.114 335.169 174.932L509.958 0.054872H482.21H454.462L304.869 149.467C222.594 231.644 149.801 304.273 143.108 310.866L130.939 322.853L116.998 308.865L103.056 294.877L250.836 147.467L398.615 0.054872H370.75H342.884L209.861 133.084C136.697 206.25 76.3929 266.261 75.8506 266.44C75.3097 266.622 68.7084 260.591 61.1822 253.04L47.4987 239.312L166.78 120.002L286.062 0.692918L260.286 0.347097L234.509 0L227.109 7.32477L219.708 14.6495L212.334 7.35285L204.961 0.054872H177.013H149.063L168.757 19.8343C179.587 30.713 188.597 40.0565 188.777 40.5989C188.958 41.1399 185.391 45.2656 180.85 49.7663L172.596 57.9499L144.799 30.6454C129.51 15.6283 116.543 2.60195 115.981 1.69848C115.199 0.4377 108.369 0.054872 86.6979 0.054872H58.4353L100.796 42.2923C124.094 65.5222 143.157 85.2379 143.157 86.1043C143.157 87.2771 127.914 103.21 116.981 113.466C116.702 113.729 90.8087 88.3184 59.4407 56.9992L2.40771 0.054872H-25.1353H-52.677L18.1223 70.8767ZM693.047 29.6283C693.047 30.4539 696.492 38.5316 700.702 47.5791C704.913 56.6279 708.357 64.4299 708.357 64.9199C708.357 66.3568 658.903 116.179 657.475 116.179C655.494 116.179 630.531 91.6719 630.531 89.7259C630.531 87.9011 690.142 28.1289 691.962 28.1289C692.559 28.1289 693.047 28.804 693.047 29.6283ZM1024.1 49.5035C1028.9 54.2403 1035.05 60.4957 1037.76 63.4039L1042.7 68.6921L934.837 176.338C875.511 235.544 826.543 284.131 826.019 284.31C825.494 284.488 818.903 278.452 811.373 270.898L797.681 257.161L905.823 149.025C965.302 89.5511 1014.28 40.8898 1014.67 40.8898C1015.05 40.8898 1019.3 44.7666 1024.1 49.5035ZM755.573 271.202C869.246 384.889 962.251 478.128 962.251 478.398C962.251 479.328 955.095 486.896 944.898 496.748L934.689 506.614L895.841 467.593C874.475 446.133 856.323 427.912 855.504 427.103C847.999 419.697 567.718 139.589 546.78 118.573L519.291 90.979L532.488 77.5877C539.748 70.2221 546.409 64.264 547.291 64.347C548.172 64.4299 641.899 157.514 755.573 271.202ZM1085.34 110.474L1099.34 123.887L990.61 232.643L881.875 341.398L867.772 327.292L853.669 313.186L961.862 205.111C1021.37 145.671 1070.34 97.043 1070.7 97.0494C1071.05 97.0545 1077.64 103.096 1085.34 110.474ZM739.496 110.756C744.103 116.898 749.627 123.981 751.772 126.499L755.672 131.075L735.134 151.383C723.836 162.551 714.161 171.844 713.632 172.034C713.102 172.223 706.423 166.34 698.79 158.958L684.909 145.538L707.75 122.565C720.313 109.929 730.71 99.5901 730.856 99.5901C731 99.5901 734.889 104.615 739.496 110.756ZM698.613 326.251C811.842 439.333 904.841 532.433 905.277 533.14C906.585 535.256 879.705 551.508 872.705 552.834C871.273 553.104 802.426 485.215 667.04 350.031L463.526 146.822L476.859 133.308C484.191 125.876 490.764 119.987 491.466 120.221C492.168 120.455 585.384 213.169 698.613 326.251ZM1140.79 166.179C1147.85 173.327 1153.63 179.604 1153.63 180.131C1153.63 182.326 937.575 396.796 936.239 395.927C935.458 395.42 929.156 389.161 922.232 382.016L909.643 369.028L1017.71 261.106C1077.14 201.75 1126.26 153.186 1126.86 153.186C1127.46 153.186 1133.73 159.033 1140.79 166.179ZM797.028 172.935C804.397 180.286 810.425 186.9 810.425 187.632C810.425 189.492 771.693 228.475 769.843 228.475C768.196 228.475 740.923 201.889 741.695 201.037C748.436 193.597 781.993 159.7 782.674 159.644C783.2 159.602 789.658 165.582 797.028 172.935ZM561.307 300.267C629.545 368.515 716.675 455.648 754.928 493.894C821.876 560.825 824.35 563.468 820.963 564.416C813.384 566.538 783.032 562.548 767.947 557.448L759.279 554.517L583.352 378.529L407.426 202.541L420.712 189.348C428.02 182.092 434.728 176.161 435.619 176.167C436.51 176.174 493.071 232.018 561.307 300.267ZM1297.51 338.478C1364.68 405.637 1423.71 464.778 1428.67 469.906C1461.18 503.461 1486.95 554.931 1495.64 603.647C1500.9 633.158 1500.49 678.317 1494.71 705.096C1479.48 775.781 1437.23 836.817 1376.46 875.943C1325.77 908.583 1264 922.695 1202.75 915.628C1170.49 911.906 1145.84 904.654 1116.09 890.131C1098.13 881.36 1088.66 875.544 1072.08 863.099C1058.43 852.85 1002.64 799.358 1003.74 797.576C1004.08 797.03 1008.35 794.513 1013.23 791.985C1018.12 789.457 1025.44 785.384 1029.5 782.934C1033.56 780.482 1037.53 778.476 1038.31 778.475C1039.1 778.473 1045.41 784.272 1052.35 791.362C1082.94 822.641 1103.04 838.591 1128.75 851.987C1146.44 861.206 1155.81 864.89 1174.95 870.159C1192.45 874.975 1202.23 876.417 1224.44 877.457C1251.65 878.733 1274.59 875.706 1301.69 867.264C1364.85 847.591 1417.3 799.697 1442.42 738.768C1455.01 708.235 1459.83 684.423 1459.83 652.776C1459.83 613.794 1452.55 582.9 1435.03 547.499C1420.04 517.216 1416.93 513.796 1275.65 372.674C1205.03 302.138 1147.25 243.906 1147.25 243.27C1147.25 241.655 1173.18 215.639 1174.39 216.044C1174.93 216.225 1230.34 271.32 1297.51 338.478ZM479.963 331.069C531.198 382.232 573.106 424.439 573.091 424.862C573.077 425.286 570.617 428.43 567.624 431.851C562.251 437.995 562.112 438.06 556.487 437.152C550.996 436.265 547.515 432.96 459.905 345.434C409.919 295.495 369.012 254.219 369.001 253.711C368.965 251.989 383.644 237.633 385.231 237.841C386.099 237.953 428.727 279.907 479.963 331.069ZM1241.99 394.048C1349.66 501.561 1380.3 533.344 1390.55 548.137C1395.48 555.269 1406.15 577.429 1410.13 588.804C1418.88 613.873 1422.72 643.763 1420.3 668.036C1418.52 685.965 1417.32 691.42 1411.06 710.2C1398.96 746.467 1379.33 774.509 1349.47 798.204C1336.09 808.823 1333.36 810.538 1316.3 819.077C1302.83 825.817 1285.23 832.046 1270.37 835.329C1256.33 838.431 1219.53 839.161 1204.22 836.642C1186.7 833.759 1162.29 825.514 1146.98 817.31C1139.87 813.495 1133.82 810.374 1133.55 810.374C1133.29 810.374 1128.36 806.82 1122.61 802.476C1112.94 795.165 1090.41 774.198 1077.59 760.564L1072.14 754.779L1081.78 747.165C1087.08 742.977 1092.35 738.689 1093.5 737.636C1094.64 736.584 1097.15 734.335 1099.07 732.641L1102.57 729.559L1121.59 748.218C1149.37 775.469 1168.13 786.753 1199.82 795.267C1208.92 797.714 1213.63 798.113 1233.37 798.113C1252.94 798.113 1257.84 797.703 1266.54 795.346C1295.85 787.4 1315.82 776.594 1335.29 758.148C1352.37 741.958 1365.15 721.607 1373.42 697.439C1379.79 678.82 1381.21 668.29 1380.34 646.111C1379.04 612.928 1370.52 587.881 1352.17 563.244C1348.59 558.445 1290.87 499.677 1223.9 432.65C1156.94 365.623 1099.62 308.09 1096.53 304.797L1090.9 298.811L1104.04 285.337C1111.26 277.927 1117.72 271.863 1118.4 271.863C1119.08 271.863 1174.69 326.846 1241.99 394.048ZM414.322 355.23C453.947 394.764 485.985 427.496 485.514 427.967C485.043 428.437 478.582 428.833 471.156 428.847C463.729 428.862 452.956 429.637 447.213 430.571C441.472 431.506 436.113 431.86 435.307 431.363C433.649 430.338 312.845 309.988 312.845 309.362C312.845 307.85 338.678 283.347 340.273 283.347C341.374 283.347 374.695 315.694 414.322 355.23ZM1188.19 452.43C1256.29 520.509 1314.12 578.685 1316.71 581.709C1339.15 607.988 1347.89 648.607 1337.92 680.199C1329.23 707.695 1316.2 725.829 1294.51 740.62C1275.32 753.696 1256.37 759.33 1231.56 759.33C1220.09 759.33 1215.62 758.705 1205.15 755.641C1198.21 753.611 1189.38 750.511 1185.52 748.751C1175.12 744.009 1159.87 731.962 1144.06 716L1130.03 701.833L1143.42 688.529C1150.79 681.21 1157.43 675.197 1158.19 675.165C1158.94 675.133 1165.54 681.012 1172.86 688.23C1190.83 705.956 1198.42 711.445 1211.2 715.953C1245.15 727.925 1282.76 711.087 1296.71 677.674C1305.52 656.594 1302.16 627.519 1288.94 610.402C1286.24 606.903 1170.14 490.055 1166.39 487.06C1165.33 486.219 1135.27 456.17 1099.58 420.285L1034.7 355.038L1047.91 341.507C1055.18 334.063 1061.86 328.125 1062.75 328.312C1063.64 328.497 1120.09 384.35 1188.19 452.43ZM336.939 389.754C383.694 436.53 390.472 444.135 385.398 444.135C384.686 444.135 376.254 447.295 366.661 451.157L349.218 458.178L302.895 411.847L256.572 365.516L270.005 351.868C277.393 344.361 283.885 338.219 284.431 338.219C284.979 338.219 308.606 361.41 336.939 389.754ZM1020.27 396.217C1026.95 402.848 1032.42 408.536 1032.42 408.858C1032.42 409.997 991.538 449.874 990.618 449.632C989.326 449.294 975.111 435.584 969.915 429.664L965.654 424.81L985.946 404.484C997.106 393.306 1006.66 384.159 1007.18 384.159C1007.69 384.159 1013.58 389.585 1020.27 396.217ZM271.527 435.92L313.326 477.473L309.576 480.578C307.514 482.286 303.903 484.918 301.552 486.425L297.278 489.165L256.578 448.474C234.195 426.092 215.88 407.393 215.88 406.918C215.88 405.66 227.368 394.367 228.647 394.367C229.243 394.367 248.539 413.066 271.527 435.92ZM1075.46 449.535C1082.67 456.717 1088.56 463.179 1088.56 463.897C1088.56 465.55 974.877 578.885 962.889 589.182C936.817 611.578 900.449 630.344 869.752 637.242C847.435 642.257 833.507 643.488 806.598 642.821C783.194 642.242 778.765 641.77 764.495 638.323C715.039 626.379 686.851 609.98 638.777 565.184C621.134 548.744 589.705 530.284 564.299 521.439C534.117 510.932 520.791 508.802 484.446 508.679C451.023 508.564 436.681 510.566 410.652 518.983C384.233 527.525 350.967 545.916 331.302 562.85C327.115 566.456 291.674 601.355 252.544 640.403L181.4 711.401L167.374 697.415L153.346 683.428L223.207 613.438C309.536 526.948 319.216 518.573 354.31 500.002C388.342 481.994 423.147 472.116 466.087 468.277C510.823 464.278 563.938 475.129 608.203 497.31C636.254 511.367 649.429 520.804 680.946 549.415C698.578 565.423 706.308 571.317 719.975 579.183C781.078 614.351 859.892 611.63 919.51 572.297C934.294 562.544 948.915 548.895 1008.18 489.524C1037.3 460.352 1061.41 436.482 1061.75 436.481C1062.09 436.48 1068.26 442.354 1075.46 449.535ZM1131.86 505.949C1143.88 518.009 1144.97 519.482 1143.32 521.492C1139.42 526.272 1018.79 645.864 1015.12 648.596C1012.98 650.193 1009.53 653.098 1007.47 655.052C1005.4 657.005 997.114 662.981 989.044 668.332C980.974 673.682 972.845 679.097 970.979 680.365C965.65 683.986 936.97 697.983 927.803 701.439C895.091 713.771 867.167 719.767 830.201 722.399C769.491 726.721 700.298 708.137 645.841 672.882C633.88 665.139 607.824 644.544 601.824 638.091C588.42 623.674 562.181 605.581 544.26 598.398C521.336 589.209 513.773 587.835 485.722 587.762C457.791 587.689 450.609 588.677 432.774 595.039C420.647 599.367 411.284 603.749 400.895 609.961C386.305 618.683 382.502 622.239 306.22 698.467L237.512 767.127L234.589 764.824C232.982 763.556 226.583 757.177 220.371 750.646L209.077 738.772L279.142 668.969C317.677 630.576 352.364 596.493 356.225 593.227C373.449 578.657 400.465 563.628 422.312 556.464C455.478 545.588 498.219 544.182 532.928 552.826C548.91 556.806 574.895 567.48 584.004 573.805C586.087 575.251 588.679 576.752 589.765 577.14C593.476 578.468 609.463 591.33 624.416 605.016C652.396 630.627 669.693 642.722 697.328 656.005C718.619 666.238 733.136 671.251 756.565 676.464C780.597 681.812 796.753 683.207 824.46 682.328C855.463 681.344 880.865 676.504 906.97 666.608C911.299 664.965 915.19 663.623 915.615 663.623C917.396 663.623 945.299 649.232 955.584 643.01C979.859 628.324 986.935 621.976 1058.33 550.848C1090.47 518.826 1117.18 492.627 1117.68 492.627C1118.18 492.627 1124.56 498.622 1131.86 505.949ZM1188.09 562.183L1201.44 575.589L1147.24 629.928C1082.11 695.205 1082.61 694.725 1064.9 709.737C1017.04 750.304 964.739 776.647 902.286 791.644C867.73 799.943 847.533 801.916 805.96 801.053C760.32 800.106 731.348 795.179 690.526 781.423C663.444 772.298 627.855 755.444 605.94 741.368C590.501 731.45 563.38 710.541 551.428 699.341C548.27 696.382 543.103 691.554 539.946 688.614C520.898 670.879 497.36 662.921 473.582 666.178C467.957 666.949 461.212 668.35 458.591 669.293C452.463 671.497 439.943 678.146 435.551 681.528C433.672 682.975 400.839 715.43 362.586 753.651L293.036 823.145L279.018 809.076L265 795.008L337.086 723.186C413.819 646.731 417.372 643.629 437.907 635.127C455.089 628.012 464.201 626.274 484.446 626.25C505.145 626.226 517.039 628.773 534.204 636.907C548.852 643.847 554.614 648.023 574.185 665.873C605.218 694.179 629.442 711.027 661.789 726.804C692.834 741.946 728.323 752.887 765.771 758.864C793.324 763.263 844.71 762.532 870.39 757.376C894.802 752.475 904.699 750.368 909.304 749.089C934.12 742.201 969.632 726.758 992.892 712.74C1026.38 692.557 1038.19 682.308 1107.7 613.034C1143.13 577.719 1172.71 548.814 1173.43 548.8C1174.14 548.786 1180.74 554.808 1188.09 562.183ZM173.291 755.738C319.897 902.615 327.442 910.528 337.416 927.889C346.339 943.42 356.963 983.922 352.113 983.922C350.509 983.922 -4.84165 629.138 -4.84165 627.536C-4.84165 626.979 0.469701 621.181 6.95994 614.654C15.5056 606.058 19.2897 603.056 20.6753 603.77C21.7279 604.311 90.4055 672.697 173.291 755.738ZM1258.54 635.868C1264.78 647.955 1264.33 658.695 1257.17 668.13C1248.1 680.097 1233.09 683.672 1219.93 677C1216.44 675.234 1213.59 673.295 1213.59 672.691C1213.59 671.141 1253.5 631.744 1255.09 631.731C1255.8 631.726 1257.36 633.586 1258.54 635.868ZM558.401 755.43C559.652 757.454 583.602 773.955 595.445 780.951C601.588 784.58 614.436 791.491 623.996 796.309L641.375 805.066L700.399 864.278C767.697 931.793 780.005 943.179 800.484 956.873C821.459 970.898 823.799 972.298 836.58 978.472C842.896 981.522 849.062 984.571 850.282 985.248C856.089 988.469 889.203 999.345 902.286 1002.33C928.084 1008.21 939.352 1009.64 965.441 1010.34C987.328 1010.93 993.68 1010.63 1010.1 1008.26C1034.15 1004.79 1058.42 999.029 1072.79 993.387C1078.9 990.988 1084.33 989.027 1084.86 989.027C1085.4 989.027 1092.9 985.658 1101.55 981.539C1119.93 972.781 1142.54 959.565 1148.92 953.849C1155.42 948.027 1156.36 947.889 1171.06 950.648C1178.66 952.076 1189.19 953.62 1194.46 954.08C1199.72 954.538 1204.74 955.288 1205.61 955.747C1209.66 957.873 1171.73 988.158 1147.16 1002.41C1144.75 1003.81 1140.77 1006.14 1138.32 1007.6C1135.86 1009.07 1126.39 1013.73 1117.27 1017.96C1066.03 1041.74 1016.35 1051.76 959.062 1049.84C923.303 1048.65 899.184 1044.16 860.821 1031.54C829.37 1021.19 802.592 1007.26 771.512 985.066C763.793 979.554 753.746 971.834 749.185 967.91C744.623 963.986 705.719 925.667 662.731 882.756C604.936 825.065 583.846 803.228 581.789 798.942C578.729 792.565 564.24 768.574 559.794 762.52C556.376 757.866 554.928 754.226 556.496 754.226C557.135 754.226 557.991 754.768 558.401 755.43ZM-59.7031 824.617V852.047L63.0973 974.728C130.638 1042.2 187.046 1098.27 188.449 1099.33C190.526 1100.89 196.004 1101.25 217.883 1101.28L244.765 1101.32L93.1141 949.787C9.70557 866.443 -58.7998 798.012 -59.1201 797.719C-59.4403 797.426 -59.7031 809.53 -59.7031 824.617ZM747.271 835.851C754.99 837.17 766.759 838.642 773.426 839.119C786.627 840.066 791.471 842.242 797.507 849.938C802.768 856.644 836.163 886.06 846.354 892.964C871.954 910.306 901.997 922.546 932.269 927.968C945.836 930.398 953.265 930.935 973.096 930.922C1008.34 930.898 1032.47 926.067 1060.91 913.338C1069.32 909.575 1069.74 909.513 1073.03 911.593C1079.93 915.954 1099.57 926.358 1104.88 928.47C1107.89 929.667 1110.14 931.282 1109.88 932.059C1109.18 934.165 1080.52 948.777 1068.11 953.357C1033.06 966.294 1006.6 971.172 971.82 971.108C945.244 971.058 916.788 966.916 894.181 959.803C880.718 955.567 862.456 948.271 856.411 944.712C853.222 942.836 847.744 939.91 844.235 938.21C834.68 933.583 813.808 919 800.923 907.951C787.881 896.768 728.012 837.773 725.99 834.112C724.761 831.887 725.002 831.762 728.945 832.571C731.305 833.055 739.552 834.531 747.271 835.851ZM909.259 838.342C920.882 844.01 938.226 849.286 951.407 851.163C961.867 852.652 982.866 852.722 992.872 851.302L999.889 850.306L1012.65 862.793C1019.66 869.661 1026.7 876.392 1028.28 877.75C1029.85 879.109 1031.15 880.847 1031.15 881.614C1031.15 883.681 1016.54 887.816 1001.19 890.096C961.132 896.045 917.269 888.791 885.679 870.992C869.631 861.949 844.873 843.715 844.873 840.937C844.873 840.469 851.62 839.392 859.864 838.546C868.109 837.7 878.588 836.25 883.149 835.328C895.993 832.726 898.284 832.991 909.259 838.342ZM1412.63 973.819C1320.71 1066.11 1293.58 1092.45 1284.62 1098.13L1280.6 1100.68L1309.68 1101.03C1333.94 1101.31 1339.22 1101.05 1341.51 1099.45C1343.03 1098.39 1381.46 1060.38 1426.93 1014.99L1509.59 932.46V904.595C1509.59 889.269 1509.45 876.815 1509.27 876.918C1509.1 877.021 1465.61 920.627 1412.63 973.819ZM-59.7031 934.354V961.776L8.26131 1029.63C45.6411 1066.95 77.4748 1098.36 79.002 1099.43C81.3279 1101.06 86.4096 1101.32 110.236 1101.03C134.492 1100.74 138.152 1100.45 135.035 1099.07C133.024 1098.17 88.6448 1054.82 36.4142 1002.72C-15.8165 950.621 -58.81 907.756 -59.1264 907.463C-59.4441 907.17 -59.7031 919.272 -59.7031 934.354ZM1503.67 994.33C1500.76 997.379 1475.46 1022.7 1447.46 1050.6L1396.54 1101.32H1424.57H1452.6L1481.13 1072.93L1509.66 1044.54L1509.3 1016.66L1508.95 988.785L1503.67 994.33ZM-59.7031 1046.13V1074.12L-45.7581 1087.72L-31.8144 1101.32H-3.36422H25.0846L20.6472 1097.63C18.2065 1095.61 -0.869938 1076.89 -21.7466 1056.04L-59.7031 1018.14V1046.13Z" fill="white" fill-opacity="0.08"/>
</g>
<defs>
<clipPath id="clip0_4891_14591">
<rect width="724.975" height="1080" fill="white"/>
</clipPath>
</defs>
</svg>
